<svg width="18" height="18" viewBox="0 0 18 18" fill="none" xmlns="http://www.w3.org/2000/svg">
<path d="M17.4907 9.00008C17.4907 13.6893 13.6893 17.4907 9.00008 17.4907M17.4907 9.00008C17.4907 4.31083 13.6893 0.509439 9.00008 0.509439M17.4907 9.00008H0.509439M9.00008 17.4907C4.31083 17.4907 0.509439 13.6893 0.509439 9.00008M9.00008 17.4907C11.1238 15.1657 12.3308 12.1484 12.3963 9.00008C12.3308 5.85178 11.1238 2.83448 9.00008 0.509439M9.00008 17.4907C6.87633 15.1657 5.66941 12.1484 5.60383 9.00008C5.66941 5.85178 6.87633 2.83448 9.00008 0.509439M0.509439 9.00008C0.509439 4.31083 4.31083 0.509439 9.00008 0.509439" stroke="white" stroke-linecap="round" stroke-linejoin="round"/>
</svg>
